<svg width="329" height="340" viewBox="0 0 329 340" fill="none" xmlns="http://www.w3.org/2000/svg">
<path d="M148.326 11H147.027L150.773 0.814453H152.045L155.777 11H154.492L151.443 2.42773H151.361L148.326 11ZM148.805 7.02148H154.014V8.11523H148.805V7.02148ZM156.567 11V0.814453L160.012 0.814453C160.81 0.814453 161.462 0.951172 161.967 1.22461C162.478 1.49349 162.856 1.86491 163.102 2.33887C163.348 2.80827 163.471 3.34375 163.471 3.94531C163.471 4.54232 163.348 5.07324 163.102 5.53809C162.861 6.00293 162.485 6.36751 161.974 6.63184C161.468 6.8916 160.819 7.02148 160.026 7.02148H157.251V5.91406H159.985C160.532 5.91406 160.972 5.83431 161.304 5.6748C161.637 5.5153 161.879 5.28971 162.029 4.99805C162.179 4.70182 162.255 4.35091 162.255 3.94531C162.255 3.53516 162.177 3.17741 162.022 2.87207C161.872 2.56673 161.63 2.32975 161.297 2.16113C160.965 1.99251 160.523 1.9082 159.971 1.9082L157.797 1.9082V11H156.567ZM162.432 11L159.971 6.41992H161.366L163.868 11H162.432ZM164.726 11V0.814453H165.956V5.87305H166.079L170.659 0.814453H172.259L167.993 5.4082L172.259 11H170.769L167.228 6.26953L165.956 7.70508V11H164.726ZM173.486 11H172.187L175.934 0.814453H177.205L180.937 11H179.652L176.603 2.42773H176.521L173.486 11ZM173.965 7.02148H179.174V8.11523H173.965V7.02148Z" fill="#63656A"/>
<path d="M4.12891 168.178C3.39974 168.178 2.76855 168.062 2.23535 167.829C1.70215 167.592 1.28288 167.264 0.977539 166.845C0.676758 166.421 0.505859 165.931 0.464844 165.375H1.73633C1.77279 165.758 1.90267 166.075 2.12598 166.325C2.35384 166.576 2.64323 166.763 2.99414 166.886C3.34505 167.009 3.72331 167.07 4.12891 167.07C4.59831 167.07 5.01986 166.993 5.39355 166.838C5.77181 166.683 6.07031 166.466 6.28906 166.188C6.50781 165.91 6.61719 165.585 6.61719 165.211C6.61719 164.874 6.52148 164.6 6.33008 164.391C6.13867 164.181 5.88802 164.01 5.57813 163.878C5.27279 163.746 4.9401 163.63 4.58008 163.529L3.33594 163.174C2.53841 162.946 1.90723 162.62 1.44238 162.196C0.982096 161.768 0.751953 161.21 0.751953 160.521C0.751953 159.952 0.904622 159.455 1.20996 159.031C1.51986 158.603 1.93685 158.27 2.46094 158.033C2.98958 157.796 3.57747 157.678 4.22461 157.678C4.88086 157.678 5.46419 157.796 5.97461 158.033C6.48503 158.266 6.89063 158.585 7.19141 158.99C7.49219 159.391 7.65169 159.847 7.66992 160.357H6.4668C6.40755 159.856 6.16602 159.466 5.74219 159.188C5.32292 158.91 4.80339 158.771 4.18359 158.771C3.73698 158.771 3.34505 158.844 3.00781 158.99C2.67057 159.136 2.40853 159.337 2.22168 159.592C2.03483 159.847 1.94141 160.139 1.94141 160.467C1.94141 160.827 2.05306 161.118 2.27637 161.342C2.49967 161.561 2.764 161.731 3.06934 161.854C3.37923 161.978 3.65951 162.076 3.91016 162.148L4.93555 162.436C5.19987 162.508 5.49382 162.606 5.81738 162.729C6.14551 162.853 6.45996 163.019 6.76074 163.229C7.06608 163.438 7.31673 163.707 7.5127 164.035C7.70866 164.359 7.80664 164.76 7.80664 165.238C7.80664 165.785 7.66309 166.282 7.37598 166.729C7.08887 167.171 6.67188 167.524 6.125 167.788C5.57813 168.048 4.91276 168.178 4.12891 168.178ZM9.45766 168H8.15883L11.9049 157.814H13.1764L16.9088 168H15.6237L12.5748 159.428H12.4928L9.45766 168ZM9.93617 164.021H15.1452V165.115H9.93617V164.021ZM21.3626 168.137C20.4602 168.137 19.6673 167.925 18.9837 167.501C18.3046 167.077 17.7737 166.476 17.3909 165.696C17.0126 164.912 16.8235 163.985 16.8235 162.914C16.8235 161.839 17.0126 160.909 17.3909 160.125C17.7737 159.341 18.3001 158.737 18.97 158.313C19.6399 157.89 20.4101 157.678 21.2805 157.678C21.8183 157.678 22.3196 157.757 22.7845 157.917C23.2493 158.076 23.664 158.304 24.0286 158.601C24.3932 158.897 24.6962 159.248 24.9378 159.653C25.1839 160.059 25.3548 160.508 25.4505 161H24.179C24.0696 160.663 23.9261 160.362 23.7483 160.098C23.5751 159.829 23.3655 159.601 23.1194 159.414C22.8733 159.223 22.5976 159.077 22.2923 158.977C21.9869 158.876 21.6497 158.826 21.2805 158.826C20.679 158.826 20.1298 158.983 19.6331 159.298C19.1409 159.608 18.7467 160.068 18.4505 160.679C18.1588 161.285 18.013 162.03 18.013 162.914C18.013 163.794 18.1611 164.536 18.4573 165.143C18.7535 165.749 19.1546 166.209 19.6604 166.523C20.1663 166.833 20.7337 166.988 21.3626 166.988C21.9459 166.988 22.4586 166.863 22.9007 166.612C23.3427 166.362 23.6891 166.008 23.9397 165.553C24.1904 165.092 24.3157 164.55 24.3157 163.926L24.6985 164.008H21.636V162.914H25.5188V164.008C25.5188 164.846 25.3411 165.576 24.9856 166.195C24.6302 166.811 24.138 167.289 23.5091 167.631C22.8847 167.968 22.1692 168.137 21.3626 168.137ZM21.2805 156.905C20.6699 156.905 20.1731 156.734 19.7903 156.393C19.4121 156.046 19.2229 155.597 19.2229 155.046H20.3167C20.3167 155.342 20.4055 155.584 20.5833 155.771C20.761 155.957 20.9934 156.051 21.2805 156.051C21.5677 156.051 21.8001 155.957 21.9778 155.771C22.1555 155.584 22.2444 155.342 22.2444 155.046H23.3382C23.3382 155.597 23.1468 156.046 22.7639 156.393C22.3857 156.734 21.8912 156.905 21.2805 156.905Z" fill="#63656A"/>
<path d="M308.129 168.178C307.4 168.178 306.769 168.062 306.235 167.829C305.702 167.592 305.283 167.264 304.978 166.845C304.677 166.421 304.506 165.931 304.465 165.375H305.736C305.773 165.758 305.903 166.075 306.126 166.325C306.354 166.576 306.643 166.763 306.994 166.886C307.345 167.009 307.723 167.07 308.129 167.07C308.598 167.07 309.02 166.993 309.394 166.838C309.772 166.683 310.07 166.466 310.289 166.188C310.508 165.91 310.617 165.585 310.617 165.211C310.617 164.874 310.521 164.6 310.33 164.391C310.139 164.181 309.888 164.01 309.578 163.878C309.273 163.746 308.94 163.63 308.58 163.529L307.336 163.174C306.538 162.946 305.907 162.62 305.442 162.196C304.982 161.768 304.752 161.21 304.752 160.521C304.752 159.952 304.905 159.455 305.21 159.031C305.52 158.603 305.937 158.27 306.461 158.033C306.99 157.796 307.577 157.678 308.225 157.678C308.881 157.678 309.464 157.796 309.975 158.033C310.485 158.266 310.891 158.585 311.191 158.99C311.492 159.391 311.652 159.847 311.67 160.357H310.467C310.408 159.856 310.166 159.466 309.742 159.188C309.323 158.91 308.803 158.771 308.184 158.771C307.737 158.771 307.345 158.844 307.008 158.99C306.671 159.136 306.409 159.337 306.222 159.592C306.035 159.847 305.941 160.139 305.941 160.467C305.941 160.827 306.053 161.118 306.276 161.342C306.5 161.561 306.764 161.731 307.069 161.854C307.379 161.978 307.66 162.076 307.91 162.148L308.936 162.436C309.2 162.508 309.494 162.606 309.817 162.729C310.146 162.853 310.46 163.019 310.761 163.229C311.066 163.438 311.317 163.707 311.513 164.035C311.709 164.359 311.807 164.76 311.807 165.238C311.807 165.785 311.663 166.282 311.376 166.729C311.089 167.171 310.672 167.524 310.125 167.788C309.578 168.048 308.913 168.178 308.129 168.178ZM317.142 168.137C316.276 168.137 315.504 167.925 314.825 167.501C314.146 167.077 313.61 166.476 313.218 165.696C312.831 164.912 312.637 163.985 312.637 162.914C312.637 161.839 312.831 160.909 313.218 160.125C313.61 159.341 314.146 158.737 314.825 158.313C315.504 157.89 316.276 157.678 317.142 157.678C318.013 157.678 318.785 157.89 319.46 158.313C320.134 158.737 320.665 159.341 321.052 160.125C321.44 160.909 321.633 161.839 321.633 162.914C321.633 163.985 321.44 164.912 321.052 165.696C320.665 166.476 320.134 167.077 319.46 167.501C318.785 167.925 318.013 168.137 317.142 168.137ZM317.142 166.988C317.757 166.988 318.313 166.833 318.81 166.523C319.311 166.209 319.708 165.749 320 165.143C320.296 164.536 320.444 163.794 320.444 162.914C320.444 162.03 320.296 161.285 320 160.679C319.708 160.068 319.311 159.608 318.81 159.298C318.313 158.983 317.757 158.826 317.142 158.826C316.527 158.826 315.969 158.983 315.467 159.298C314.966 159.608 314.567 160.068 314.271 160.679C313.975 161.285 313.827 162.03 313.827 162.914C313.827 163.794 313.975 164.536 314.271 165.143C314.567 165.749 314.966 166.209 315.467 166.523C315.969 166.833 316.527 166.988 317.142 166.988ZM322.902 168V157.814H324.132V166.906H328.876V168H322.902Z" fill="#63656A"/>
<path d="M159.011 339.137C158.145 339.137 157.372 338.925 156.693 338.501C156.014 338.077 155.479 337.476 155.087 336.696C154.7 335.912 154.506 334.985 154.506 333.914C154.506 332.839 154.7 331.909 155.087 331.125C155.479 330.341 156.014 329.737 156.693 329.313C157.372 328.89 158.145 328.678 159.011 328.678C159.881 328.678 160.654 328.89 161.328 329.313C162.003 329.737 162.534 330.341 162.921 331.125C163.308 331.909 163.502 332.839 163.502 333.914C163.502 334.985 163.308 335.912 162.921 336.696C162.534 337.476 162.003 338.077 161.328 338.501C160.654 338.925 159.881 339.137 159.011 339.137ZM159.011 337.988C159.626 337.988 160.182 337.833 160.679 337.523C161.18 337.209 161.576 336.749 161.868 336.143C162.164 335.536 162.312 334.794 162.312 333.914C162.312 333.03 162.164 332.285 161.868 331.679C161.576 331.068 161.18 330.608 160.679 330.298C160.182 329.983 159.626 329.826 159.011 329.826C158.396 329.826 157.837 329.983 157.336 330.298C156.835 330.608 156.436 331.068 156.14 331.679C155.843 332.285 155.695 333.03 155.695 333.914C155.695 334.794 155.843 335.536 156.14 336.143C156.436 336.749 156.835 337.209 157.336 337.523C157.837 337.833 158.396 337.988 159.011 337.988ZM157.575 327.543C157.366 327.548 157.179 327.47 157.015 327.311C156.855 327.146 156.778 326.96 156.782 326.75C156.778 326.522 156.855 326.333 157.015 326.183C157.179 326.032 157.366 325.957 157.575 325.957C157.803 325.957 157.992 326.032 158.143 326.183C158.293 326.333 158.368 326.522 158.368 326.75C158.368 326.96 158.293 327.146 158.143 327.311C157.992 327.47 157.803 327.548 157.575 327.543ZM160.433 327.543C160.223 327.548 160.038 327.47 159.879 327.311C159.719 327.146 159.64 326.96 159.64 326.75C159.64 326.522 159.719 326.333 159.879 326.183C160.038 326.032 160.223 325.957 160.433 325.957C160.66 325.957 160.85 326.032 161 326.183C161.155 326.333 161.23 326.522 161.226 326.75C161.23 326.96 161.155 327.146 161 327.311C160.85 327.47 160.66 327.548 160.433 327.543ZM172.864 328.814V339H171.647L166.11 331.002H166.001V339H164.77V328.814H165.96L171.538 336.826H171.633V328.814H172.864Z" fill="#63656A"/>
<path fill-rule="evenodd" clip-rule="evenodd" d="M62.7322 38.382C59.0623 38.6598 58.263 38.804 57.0507 39.4062C55.544 40.1551 54.4758 41.2174 53.6572 42.7818C52.7617 44.4924 51.2859 52.8429 49.6327 65.5519C49.4029 67.3194 49.5795 67.4569 51.656 67.1254C55.2842 66.5462 61.1817 67.4981 64.7455 69.2382C70.9731 72.2786 75.7487 78.7614 77.2206 86.1724C78.5735 92.9837 76.1526 100.189 70.7227 105.513C68.2104 107.976 66.4125 109.064 62.9374 110.224C59.1938 111.473 57.6205 111.689 51.0903 111.852L44.8211 112.009L44.8908 169.24L44.9602 226.471L47.44 226.338C51.6695 226.109 57.545 226.234 59.5635 226.595C63.993 227.387 68.1112 229.437 71.1588 232.366C78.5509 239.47 80.6061 249.688 76.4395 258.622C73.2074 265.551 68.1696 269.805 60.8404 271.793C56.9212 272.856 54.6574 272.887 47.0956 271.982L45.649 271.809V273.139C45.649 277.011 47.3962 282.641 49.5986 285.866C51.1187 288.092 53.836 290.44 56.1756 291.551C58.7394 292.768 60.8445 293.289 64.0437 293.499L66.5949 293.666L67.0746 292.547C67.3565 291.889 67.7811 291.374 68.1051 291.298C68.4082 291.227 72.1899 290.935 76.5089 290.648L84.3616 290.128L85.2772 289.11C86.4956 287.757 88.366 284.976 89.3885 282.997C90.632 280.592 91.5415 277.948 92.6348 273.562C95.9619 260.211 98.7734 243.245 101.009 223.028L101.537 218.245L103.144 215.989C105.428 212.783 107.58 209.551 109.903 205.842L111.915 202.627L112.097 206.913C112.196 209.271 112.414 217.59 112.58 225.4C112.747 233.21 112.946 241.709 113.024 244.288C113.101 246.867 113.224 251.087 113.298 253.665C113.585 263.743 115.576 270.622 120.122 277.242C121.928 279.873 126.499 284.249 129.274 286.005C130.486 286.772 131.726 287.58 132.029 287.801C132.523 288.161 131.701 288.204 124.094 288.215C114.76 288.228 114.392 288.285 113.563 289.845C113.195 290.536 113.146 291.966 113.214 300.004L113.293 309.358L114.102 310.179L114.911 311H163.074H211.236L212.136 310.219L213.036 309.437L213.115 300.043C213.183 291.97 213.134 290.537 212.766 289.845C211.93 288.272 211.633 288.228 201.546 288.211C194.338 288.199 192.482 288.127 192.886 287.876C200.912 282.904 204.629 279.313 207.748 273.517C211.036 267.404 212.2 262.621 212.614 253.531C212.762 250.29 213.074 241.488 213.307 233.973C213.54 226.458 213.853 216.644 214.003 212.164C214.153 207.684 214.276 203.488 214.276 202.838C214.276 202.166 214.388 201.725 214.536 201.814C214.679 201.9 215.693 203.444 216.789 205.245C219.181 209.176 221.772 213.098 223.932 216.058L225.523 218.237L225.957 222.22C228.046 241.358 230.232 255.219 233.303 268.803C235.729 279.534 236.912 282.548 240.78 287.865L242.368 290.048L243.959 290.205C244.833 290.291 248.587 290.557 252.3 290.797C256.013 291.036 259.199 291.349 259.381 291.492C259.562 291.636 259.857 292.182 260.035 292.707L260.359 293.662L263.017 293.505C268.934 293.154 273.765 290.778 276.869 286.691C279.214 283.605 281.025 278.568 281.398 274.09L281.589 271.8L280.101 271.978C272.391 272.899 269.926 272.857 265.958 271.735C258.899 269.739 254.036 265.685 250.907 259.19C246.335 249.697 248.32 239.411 256.124 232.162C261.045 227.59 267.434 225.733 276.685 226.185C278.655 226.281 280.669 226.428 281.162 226.512L282.058 226.665V169.3V111.936H277.638C272.229 111.936 268.683 111.572 265.56 110.697C259.044 108.872 254.922 105.49 251.883 99.4778C248.666 93.1099 248.668 86.7219 251.891 80.1075C254.845 74.0436 259.344 69.9707 265.109 68.1409C268.76 66.9818 272.732 66.6207 275.701 67.178C277.305 67.4791 277.717 67.3084 277.525 66.4227C277.441 66.0361 277.25 64.6349 277.101 63.3087C276.456 57.58 274.884 47.8184 274.169 45.1062C273.586 42.8962 272.934 41.761 271.52 40.4932C269.785 38.9387 268.425 38.6094 262.219 38.2411C254.907 37.8073 252.862 37.9228 250.846 38.8846C249.971 39.3023 248.917 39.9182 248.504 40.2534C244.717 43.3288 237.348 44.5658 229.907 43.3757C227.971 43.066 226.347 42.8128 226.297 42.8128C226.246 42.8128 225.629 43.526 224.925 44.3978C223.759 45.8401 223.644 46.1131 223.644 47.4331C223.644 49.0679 222.312 54.0086 220.663 58.4861C217.192 67.9118 216.138 70.8592 213.294 79.0875C211.568 84.082 210.1 88.2225 210.032 88.2884C209.745 88.5673 209.595 85.3815 209.332 73.4178L209.053 60.7538L208.323 58.6822C207.178 55.4375 206.473 54.302 204.445 52.4419C197.025 45.6359 186.959 41.1265 175.701 39.5651C172.234 39.0845 159.845 39.0783 155.45 39.5552C142.604 40.9489 131.251 45.1081 124.133 51.0278C120.866 53.7445 119.425 55.8565 118.412 59.4123C117.929 61.1053 117.828 62.854 117.522 74.7076C117.332 82.0686 117.109 88.0909 117.026 88.0904C116.943 88.0899 115.654 84.5635 114.163 80.2537C112.671 75.944 109.924 68.1982 108.056 63.0407C104.241 52.5024 103.818 51.0969 103.523 47.9767C103.321 45.8476 103.269 45.7219 101.992 44.2679C100.784 42.8932 100.595 42.7775 99.8172 42.9334C94.4831 44.0021 90.1007 44.1294 86.0581 43.3334C82.9388 42.7193 80.9442 41.9314 79.0039 40.5465C78.2875 40.035 76.9059 39.2506 75.9341 38.8037C74.2311 38.0203 74.0368 37.9919 70.5849 38.0246C68.6148 38.0433 65.0811 38.2041 62.7322 38.382ZM74.0889 39.3259C75.0973 39.6289 76.6949 40.4281 77.7998 41.1825C80.1873 42.8128 82.5621 43.8063 85.2819 44.3121C86.4232 44.5246 87.4231 44.7625 87.5038 44.8412C87.5848 44.9197 87.6848 46.0989 87.7262 47.4612C87.8813 52.5613 90.301 57.8538 94.5131 62.304C95.1061 62.9304 95.5299 63.4426 95.4555 63.4426C95.3808 63.4426 91.0786 64.2249 85.8947 65.1809L76.4695 66.9191L64.4347 64.2284C57.8153 62.7484 52.1828 61.4758 51.9175 61.4005C51.287 61.221 51.2981 60.4058 51.988 56.2088C52.2908 54.3669 52.7341 51.6542 52.973 50.1806C53.6164 46.2154 54.5576 43.1866 55.5002 42.0495C55.9463 41.5115 56.981 40.7464 57.7996 40.3493C59.1588 39.6902 59.7784 39.5946 64.9364 39.2492C68.0431 39.0413 70.9748 38.8538 71.4515 38.8326C71.9279 38.8115 73.1149 39.0333 74.0889 39.3259ZM262.77 39.3401C265.271 39.4992 267.75 39.761 268.281 39.9214C270.218 40.5079 271.937 42.094 272.672 43.9737C273.38 45.7838 276.001 61.1155 275.66 61.4474C275.602 61.5037 270.973 62.5716 265.374 63.8201C259.774 65.0689 254.387 66.2769 253.402 66.5047L251.611 66.9191L241.762 65.1139C236.345 64.121 231.912 63.2224 231.911 63.1166C231.911 63.011 232.46 62.3222 233.133 61.5859C237.124 57.2162 239.35 51.8431 239.35 46.576V44.7721L241.717 44.3196C244.384 43.81 247.039 42.7306 248.947 41.38C251.747 39.3971 253.701 38.7589 256.433 38.9352C257.418 38.9987 260.27 39.1809 262.77 39.3401ZM174.599 40.5524C181.529 41.4719 186.666 42.9779 192.371 45.7626C196.799 47.9242 200.561 50.4346 203.408 53.1277C205.46 55.0693 206.386 56.5316 207.379 59.3973C208.049 61.3336 208.337 66.637 208.658 83.0085C208.832 91.89 208.806 92.9247 208.372 94.1941C207.972 95.3671 207.787 95.5929 207.228 95.5929C206.417 95.5929 206.369 95.9672 207.115 96.4752C207.643 96.8353 207.649 96.9052 207.239 98.031C205.825 101.91 203.18 111.407 202.029 116.733C200.958 121.686 199.725 129.375 199.219 134.263C198.572 140.509 198.56 154.627 199.197 160.05C200.839 174.013 204.721 185.689 211.054 195.702C213.197 199.09 213.449 199.645 213.449 200.975C213.449 201.951 213.325 202.243 212.752 202.608C211.96 203.112 212.061 203.587 212.914 203.37C213.464 203.23 213.475 203.3 213.321 205.874C213.234 207.33 212.978 214.79 212.753 222.453C211.772 255.792 211.703 257.116 210.688 261.971C208.915 270.45 204.942 277.388 199.122 282.172C193.971 286.405 187.831 289.273 180.399 290.915C174.764 292.161 172.246 292.403 161.925 292.686C152.587 292.943 145.187 291.827 137.95 289.071C132.59 287.03 128.461 284.429 124.727 280.74C120.994 277.052 118.459 272.929 116.604 267.527C114.666 261.882 114.165 257.004 113.857 240.805C113.769 236.163 113.63 230.196 113.548 227.543C113.217 216.902 112.942 203.155 113.057 203.039C113.125 202.971 113.409 203.054 113.689 203.224C113.969 203.394 114.272 203.461 114.363 203.372C114.633 203.11 113.955 202.493 113.397 202.493C112.23 202.493 113.1 200.165 115.892 195.815C121.665 186.819 125.585 175.829 127.318 163.778C130.093 144.487 127.73 122.355 120.545 100.338C119.508 97.1592 119.459 96.8763 119.873 96.4318C120.481 95.7789 120.434 95.5929 119.664 95.5929C119.088 95.5929 118.954 95.3842 118.562 93.8667C118.165 92.3299 118.145 90.9711 118.38 81.4755C118.911 60.0293 118.877 60.3878 120.748 56.6889C122.624 52.9831 129.077 48.2401 136.162 45.3602C147.148 40.8951 162.606 38.9615 174.599 40.5524ZM101.324 45.2847C102.148 46.2821 102.284 46.6727 102.462 48.5667C102.732 51.423 103.612 54.2712 107.721 65.586C112.266 78.0997 116.221 89.6875 117.142 93.1817C117.549 94.7289 118.42 97.6224 119.076 99.6117C122.35 109.528 124.036 116.377 125.668 126.404C127.945 140.382 127.996 154.526 125.814 166.514C123.805 177.553 119.67 188.139 114.213 196.212C113.219 197.682 112.312 199.175 112.196 199.53C111.878 200.502 107.392 207.707 104.137 212.473L101.254 216.692H81.441H61.6278L61.6978 183.671L61.7678 150.65H81.744H101.72L101.69 151.454C101.674 151.896 101.455 155.634 101.204 159.76C100.045 178.837 99.1283 196.642 98.7635 207.181C98.6941 209.191 98.7239 209.32 99.2405 209.25C100.056 209.141 104.329 204.701 107.21 200.97C115.189 190.638 120.417 178.22 122.021 165.788C122.548 161.702 122.475 150.879 121.883 145.426C120.66 134.155 118.355 121.103 115.874 111.4C114.108 104.496 110.677 93.7036 109.284 90.6763L108.81 89.6446L102.096 89.6834C96.627 89.7153 95.3083 89.7946 94.9796 90.1124C94.7239 90.3597 94.6928 90.5025 94.8945 90.5025C95.0695 90.5025 95.2893 90.3819 95.383 90.2345C95.5822 89.9211 107.549 89.856 107.725 90.1676C107.787 90.2782 107.55 92.6592 107.199 95.459C105.242 111.047 103.419 128.688 102.532 140.603C102.307 143.624 102.032 147 101.922 148.105L101.72 150.115H81.744H61.7678V134.185V118.256L63.537 117.908C64.5102 117.717 65.3781 117.483 65.4658 117.39C65.5536 117.296 65.2842 117.299 64.8673 117.396C64.4504 117.493 63.5475 117.648 62.8603 117.739L61.6113 117.906L61.6896 114.901L61.7678 111.897L64.1228 111.036C67.2906 109.878 68.7463 109.008 71.0472 106.897C74.4223 103.801 76.6872 100.127 77.934 95.7269C78.4307 93.9731 78.541 92.8776 78.5404 89.6987C78.5399 86.2034 78.4627 85.5722 77.7711 83.4026C76.7737 80.2741 74.5942 76.2127 72.739 74.0257C69.7845 70.5425 65.5787 67.8555 61.4573 66.8173C59.0447 66.2097 55.136 65.8662 52.6848 66.0465L50.5775 66.2014L50.7158 65.5589C50.7919 65.2053 50.9305 64.3436 51.0239 63.6436C51.117 62.9435 51.3226 62.3709 51.4802 62.3709C51.6381 62.3709 57.1791 63.5964 63.7935 65.0943C70.408 66.5923 76.13 67.8193 76.5089 67.8212C76.8878 67.8231 80.1735 67.265 83.8106 66.5813C87.4476 65.8976 91.9071 65.0611 93.7204 64.7225L97.0172 64.1068L97.4773 62.234C97.7303 61.2041 98.3389 58.7339 98.8297 56.7446C99.3204 54.7553 99.9436 52.1852 100.215 51.0331L100.707 48.9385L99.2162 46.7724C98.396 45.581 97.7251 44.5733 97.7251 44.5329C97.7251 44.3986 98.6787 44.2149 99.5389 44.1835C100.224 44.1583 100.568 44.3705 101.324 45.2847ZM228.796 44.3177C229.375 44.4686 229.334 44.5739 227.901 46.6559C227.075 47.8551 226.4 48.9919 226.4 49.1818C226.4 49.5446 228.532 58.3286 229.49 61.9133C229.92 63.5214 230.151 63.9846 230.497 63.9294C230.744 63.89 231.08 63.9399 231.244 64.0403C231.525 64.2115 234.447 64.7744 244.995 66.6885C247.418 67.1281 249.923 67.6015 250.561 67.7408C251.214 67.8831 251.999 67.8949 252.355 67.7682C253.569 67.3355 275.708 62.5379 275.851 62.6764C275.93 62.7533 276.076 63.5793 276.177 64.5119L276.359 66.2075L274.317 66.0401C271.995 65.8491 268.102 66.1842 265.663 66.7849C262.685 67.5185 259.093 69.4812 256.664 71.7031C253.184 74.8868 251.186 77.9526 249.633 82.4944C249.211 83.7305 248.774 84.807 248.662 84.8866C248.551 84.9659 248.495 87.1361 248.537 89.7092C248.611 94.1882 248.652 94.4955 249.509 96.9325C250.001 98.3324 250.836 100.23 251.363 101.149C252.701 103.479 255.325 106.616 257.048 107.946C258.672 109.199 262.296 111.001 264.079 111.442L265.25 111.732V114.781C265.25 117.765 265.237 117.83 264.63 117.827C263.778 117.823 261.602 117.212 259.485 116.383C258.511 116.002 257.671 115.733 257.617 115.785C257.438 115.96 261.782 117.539 263.46 117.91L265.112 118.274L265.183 134.261L265.254 150.248H245.281H225.308L225.191 149.646C225.126 149.314 224.744 144.823 224.342 139.666C223.356 127.027 221.114 105.37 219.748 95.2977C219.417 92.851 219.224 90.6509 219.32 90.4082C219.474 90.0167 220.181 89.9666 225.557 89.9666H231.619L232.66 91.5476C234.227 93.927 234.437 94.2 233.981 93.2626C233.503 92.2812 231.985 90.0435 231.668 89.8525C231.55 89.782 228.438 89.7065 224.751 89.6845L218.046 89.6446L217.245 91.748C216.506 93.6886 214.839 98.6094 213.49 102.833C212.411 106.211 210.157 115.107 209.062 120.307C206.798 131.066 204.769 145.949 204.45 154.133C203.854 169.452 208.387 184.681 217.449 197.804C221.296 203.376 226.558 209.193 227.749 209.192L228.41 209.191L228.227 205.507C227.154 183.881 226.602 173.378 226.146 165.922C225.849 161.059 225.52 155.604 225.416 153.798L225.227 150.516H245.238H265.25V183.606V216.696L245.48 216.627L225.711 216.558L222.884 212.433C219.674 207.747 215.617 201.24 214.978 199.752C214.742 199.203 213.803 197.648 212.891 196.297C206.48 186.805 202.312 175.144 200.45 161.501C199.884 157.349 199.811 155.74 199.817 147.435C199.823 136.866 200.251 132.09 202.05 122.519C203.665 113.929 204.765 109.616 207.652 100.549C208.544 97.7497 209.545 94.4342 209.878 93.1817C210.68 90.1593 215.396 76.392 219.824 64.1443C223.424 54.1865 224.272 51.3621 224.618 48.1712C224.774 46.7338 224.974 46.2309 225.76 45.2911C226.727 44.1339 227.339 43.9378 228.796 44.3177ZM97.6112 46.4967C99.6262 49.2863 99.6053 48.9763 98.1689 54.7352C96.4678 61.5567 96.3113 62.103 96.0575 62.103C95.7244 62.103 93.9717 60.0384 92.5737 57.9998C90.4002 54.8304 89.2292 51.6408 88.7539 47.5973C88.4484 44.9966 88.4605 44.9867 92.0234 44.8881C93.7196 44.8412 95.3769 44.7769 95.7062 44.7456C96.1619 44.7019 96.6163 45.1196 97.6112 46.4967ZM237.903 45.1011C238.138 45.1735 238.248 45.8401 238.248 47.1952C238.248 49.6793 237.26 53.1277 235.747 55.9277C234.594 58.0628 231.536 61.9691 231.019 61.9691C230.849 61.9691 230.004 59.1554 229.114 55.6279L227.515 49.2871L229.091 47.0312L230.667 44.7756L234.113 44.8852C236.008 44.9455 237.714 45.0427 237.903 45.1011ZM50.8842 69.0662C48.4719 69.4416 45.1101 70.5781 43.1692 71.6742C42.1842 72.2306 40.3073 73.7176 38.9982 74.9784C36.9262 76.9744 36.4385 77.633 35.2294 80.0689C33.3445 83.8669 32.8662 86.1362 33.0378 90.469C33.1461 93.2042 33.3142 94.2616 33.9168 95.9948C36.1629 102.455 40.9134 107.056 47.5059 109.157C49.754 109.874 50.2133 109.926 54.1906 109.914C58.1247 109.903 58.6353 109.843 60.6657 109.16C69.1345 106.308 74.3586 99.8111 75.261 91.0064C75.6264 87.4431 74.4033 82.2219 72.4519 79.0127C70.3705 75.5901 66.7153 72.3651 63.0868 70.7498C59.7335 69.257 54.3929 68.5202 50.8842 69.0662ZM269.604 69.0719C265.117 69.7639 260.952 71.8395 257.811 74.9495C253.386 79.33 251.575 84.0354 251.826 90.5025C252.04 95.9964 253.635 99.7087 257.481 103.661C262.003 108.309 267.17 110.285 274.051 109.997C276.528 109.893 277.725 109.702 279.44 109.138C285.14 107.262 289.18 103.917 291.812 98.8961C293.37 95.9227 293.977 93.3346 293.999 89.5648C294.023 85.6486 293.547 83.6252 291.764 80.0536C290.672 77.8671 290.122 77.1475 287.859 74.9479C285.596 72.7472 284.858 72.214 282.609 71.1528C281.169 70.4736 279.185 69.7234 278.2 69.4861C275.994 68.954 271.708 68.7474 269.604 69.0719ZM59.8391 70.7841C65.2646 72.4905 69.5255 75.9539 71.902 80.5894C73.7166 84.1297 74.1619 85.9473 74.133 89.6987C74.1128 92.2796 73.9869 93.1495 73.3562 95.0571C71.4873 100.709 67.9447 104.678 62.5622 107.15C49.3497 113.218 34.0113 103.771 34.0113 89.5648C34.0113 79.9738 41.0217 71.8684 50.8189 70.1318C53.1769 69.7138 57.4094 70.02 59.8391 70.7841ZM278.338 70.6807C283.626 72.285 288.235 75.8832 290.515 80.1876C292.36 83.6719 292.925 85.8369 292.927 89.4308C292.929 93.0592 292.474 94.9815 290.86 98.1604C287.513 104.751 280.575 108.994 273.103 109.02C269.815 109.031 267.053 108.403 263.881 106.922C261.65 105.881 260.907 105.35 258.75 103.253C256.593 101.155 256.047 100.433 254.976 98.2635C253.449 95.1688 252.85 92.6597 252.855 89.378C252.865 82.8627 256.085 76.9315 261.533 73.3881C263.75 71.9464 267.166 70.55 269.447 70.1527C271.753 69.7513 276.132 70.0112 278.338 70.6807ZM49.9568 74.8522C47.469 75.4379 45.1633 76.7606 43.0061 78.8399C39.7733 81.9558 38.2975 85.7916 38.57 90.3685C38.8996 95.8989 42.009 100.648 46.8033 102.941C51.5301 105.203 56.5671 105.216 61.2167 102.977C66.2935 100.532 69.2469 96.0586 69.5406 90.3685C69.7916 85.5058 68.476 82.0968 65.0693 78.7831C62.8661 76.6403 60.1791 75.185 57.5284 74.6992C55.4801 74.3239 51.8938 74.3965 49.9568 74.8522ZM268.731 74.8522C257.415 77.5159 253.459 92.096 261.842 100.247C267.915 106.152 277.971 106.099 284.033 100.129C286.975 97.2318 288.395 93.8008 288.395 89.5881C288.395 86.7561 287.991 85.0259 286.76 82.5911C284.86 78.8311 281.153 75.9025 276.946 74.8367C274.949 74.3311 270.914 74.3386 268.731 74.8522ZM56.5767 75.6504C62.7195 76.8841 67.0063 80.8978 68.3462 86.6704C68.9281 89.1768 68.9108 90.2407 68.247 92.7645C67.0024 97.4962 63.8409 100.893 58.9518 102.751C57.3339 103.366 56.6779 103.461 54.0528 103.461C51.408 103.461 50.7773 103.368 49.1004 102.731C46.5759 101.773 44.9139 100.712 43.2574 99.0014C37.8677 93.4359 37.9749 85.1473 43.5059 79.7691C45.8764 77.4642 48.6984 76.0806 52.1966 75.5078C54.1385 75.1898 54.3121 75.1954 56.5767 75.6504ZM277.303 76.1658C278.401 76.5039 279.916 77.1657 280.67 77.6364C282.355 78.6875 284.77 81.1885 285.475 82.6122C285.763 83.1944 286.154 83.9719 286.345 84.3403C286.535 84.7087 286.894 85.9671 287.143 87.1371C287.504 88.8363 287.538 89.6183 287.313 91.0254C286.456 96.3956 283.693 100.082 278.811 102.369C276.787 103.317 276.24 103.453 273.989 103.567C270.856 103.727 268.879 103.35 266.323 102.106C261.638 99.8274 258.362 94.6008 258.362 89.4075C258.362 84.448 261.57 79.3418 266.091 77.1052C269.999 75.1721 273.204 74.9037 277.303 76.1658ZM152.832 87.9854C152.15 88.0424 149.112 88.2731 146.081 88.4979C130.726 89.6368 126.863 90.4692 124.738 93.0959C124.441 93.4624 124.088 93.6958 123.952 93.6146C123.61 93.4089 122.612 94.1609 122.881 94.4221C123.001 94.5392 123.319 94.5014 123.588 94.3383C124.042 94.0623 124.101 94.3176 124.422 97.9654C125.529 110.517 126.548 116.441 127.657 116.77C127.94 116.853 128.668 117.148 129.274 117.424C130.683 118.065 133.83 118.106 140.571 117.57C147.123 117.048 171.016 117.054 182.865 117.579C194.381 118.09 196.015 118.063 197.454 117.333C198.077 117.017 198.761 116.759 198.974 116.759C199.499 116.759 199.539 116.574 200.358 110.462C200.753 107.515 201.38 102.969 201.752 100.359C202.689 93.785 202.673 93.3759 201.427 92.3026C200.089 91.1492 199.568 90.8749 197.514 90.2407C195.512 89.6229 193.006 89.3753 180.936 88.6043C173.023 88.0987 155.963 87.7228 152.832 87.9854ZM169.088 88.896C174.597 89.1639 189.869 90.1252 193.001 90.4012C195.722 90.641 199.156 91.8155 200.074 92.8205C200.956 93.7858 201.164 94.532 200.942 95.9439C200.846 96.5615 200.404 99.7792 199.961 103.095C198.829 111.572 198.331 114.663 197.993 115.307C197.832 115.613 197.308 116.095 196.827 116.378C195.739 117.018 194.718 117.025 176.252 116.518C161.769 116.12 146.921 116.22 137.786 116.778C131.774 117.145 130.416 117.025 129.031 116.009C127.965 115.227 127.52 114.146 127.305 111.811C127.237 111.069 127.074 110.04 126.942 109.525C126.81 109.009 126.564 106.899 126.395 104.836C126.225 102.773 125.97 100.06 125.827 98.808C125.349 94.6273 125.346 94.6616 126.357 93.4383C128.115 91.3105 131.112 90.6512 143.326 89.7046C145.296 89.5519 148.21 89.3011 149.801 89.1473C154.838 88.6608 162.261 88.5641 169.088 88.896ZM93.9714 91.6411C93.718 92.1202 93.2344 92.8736 92.8969 93.3156C92.3017 94.0955 91.4368 95.5951 91.738 95.325C92.3546 94.772 94.8432 90.7704 94.5705 90.7704C94.4947 90.7704 94.2252 91.1621 93.9714 91.6411ZM111.756 102.425C115.716 115.164 119.172 132.371 120.447 145.694C120.538 146.652 120.683 148.008 120.767 148.708L120.922 149.981H112.048H103.174L103.361 146.431C103.464 144.478 103.721 141.313 103.934 139.398C104.146 137.482 104.572 132.72 104.879 128.815C105.187 124.91 105.56 120.992 105.708 120.108C105.856 119.223 106.107 116.933 106.267 115.017C106.697 109.838 106.804 108.72 107.009 107.247C107.112 106.511 107.164 105.792 107.125 105.65C107.086 105.508 107.185 104.906 107.345 104.31C107.505 103.715 107.825 101.3 108.057 98.9419C108.657 92.8401 108.641 92.8738 109.607 95.7274C110.057 97.0534 111.023 100.067 111.756 102.425ZM202.979 93.9567C202.979 94.2284 203.818 94.5984 204.01 94.4114C204.08 94.3442 204.055 94.1604 203.955 94.0034C203.735 93.6575 202.979 93.6213 202.979 93.9567ZM218.507 95.5929C218.592 96.256 218.717 97.1 218.785 97.4684C218.853 97.8368 219.229 101.032 219.621 104.568C220.012 108.105 220.393 111.42 220.466 111.936C220.736 113.839 223.254 142.616 223.531 146.966L223.723 149.981H214.873H206.024L206.152 149.244C206.223 148.839 206.471 146.397 206.703 143.818C206.935 141.24 207.302 138.226 207.518 137.12C207.734 136.015 208.112 133.544 208.358 131.628C208.604 129.712 208.927 127.762 209.076 127.294C209.224 126.826 209.645 124.837 210.012 122.874C210.651 119.443 211.678 114.886 212.899 110.061C213.789 106.542 216.817 96.842 217.471 95.4185C217.684 94.9542 217.858 94.4176 217.858 94.2263C217.858 93.411 218.364 94.476 218.507 95.5929ZM121.294 94.8821C120.929 95.1423 120.879 95.2985 121.116 95.441C121.457 95.6465 122.248 95.1685 122.248 94.7565C122.248 94.4178 121.879 94.4666 121.294 94.8821ZM204.779 94.775C204.69 94.9154 204.86 95.1568 205.158 95.3116C205.828 95.6602 206.01 95.6653 206.01 95.3344C206.01 94.9435 204.972 94.4717 204.779 94.775ZM235.208 95.31C235.366 95.5967 235.631 95.9128 235.798 96.0128C235.964 96.113 235.887 95.8785 235.627 95.4919C235.075 94.6734 234.79 94.5494 235.208 95.31ZM90.5879 96.5467C90.2696 97.0713 90.1344 97.4255 90.287 97.3336C90.5857 97.1541 91.4801 95.5929 91.2842 95.5929C91.2197 95.5929 90.9061 96.0221 90.5879 96.5467ZM236.884 97.5353C237.185 98.0144 237.881 98.8883 238.431 99.4778C239.284 100.393 239.323 100.413 238.696 99.6117C238.291 99.096 237.652 98.222 237.274 97.6693C236.432 96.4371 236.129 96.3332 236.884 97.5353ZM89.1482 98.4731C88.8057 98.898 88.8154 98.9074 89.2524 98.5743C89.7114 98.2242 89.8572 98.0042 89.6304 98.0042C89.5734 98.0042 89.3562 98.2153 89.1482 98.4731ZM88.1852 99.6787C87.3716 100.581 86.8963 101.219 87.0371 101.219C87.1059 101.219 87.5611 100.737 88.0483 100.148C88.9939 99.0033 89.0898 98.6748 88.1852 99.6787ZM240.314 101.755C240.588 102.05 240.875 102.291 240.951 102.291C241.026 102.291 240.864 102.05 240.59 101.755C240.315 101.46 240.029 101.219 239.953 101.219C239.877 101.219 240.04 101.46 240.314 101.755ZM86.1173 101.956C85.7677 102.39 85.7806 102.395 86.2904 102.032C86.5935 101.816 86.8932 101.605 86.9563 101.563C87.0194 101.521 86.9415 101.487 86.7833 101.487C86.6251 101.487 86.3254 101.698 86.1173 101.956ZM242.645 104.233C243.32 104.933 243.909 105.506 243.953 105.506C244.16 105.506 243.941 105.265 242.725 104.155L241.416 102.961L242.645 104.233ZM84.4608 103.831C83.6681 104.762 83.3325 105.238 83.4686 105.238C83.5449 105.238 83.9384 104.816 84.3429 104.3C85.0937 103.343 85.1846 102.982 84.4608 103.831ZM81.9843 106.511C81.6418 106.936 81.6515 106.945 82.0885 106.612C82.3538 106.41 82.5706 106.199 82.5706 106.143C82.5706 105.923 82.3444 106.064 81.9843 106.511ZM79.8048 108.472L78.8509 109.295L79.8842 108.574C80.7973 107.938 81.0943 107.649 80.8381 107.649C80.7946 107.649 80.3295 108.02 79.8048 108.472ZM246.927 108.453C247.201 108.748 247.488 108.989 247.563 108.989C247.639 108.989 247.477 108.748 247.202 108.453C246.928 108.158 246.642 107.917 246.566 107.917C246.49 107.917 246.653 108.158 246.927 108.453ZM248.58 109.919C250.017 111.147 252.485 112.943 253.163 113.255C253.72 113.511 253.742 113.505 253.313 113.214C253.037 113.027 252.045 112.301 251.109 111.602C250.173 110.903 249.035 110.079 248.58 109.771L247.754 109.213L248.58 109.919ZM76.6467 111.038C75.817 111.759 75.7548 111.859 76.3957 111.443C77.1572 110.947 78.115 110.045 77.8513 110.071C77.7951 110.076 77.2528 110.511 76.6467 111.038ZM60.2524 168.894V225.584L58.8058 225.382C58.0103 225.272 54.7246 225.194 51.5042 225.211L45.649 225.24V169.163V113.086L51.6419 112.92C54.9381 112.829 58.0688 112.643 58.5992 112.507C59.1296 112.37 59.7187 112.247 59.9079 112.231C60.1824 112.21 60.2524 123.706 60.2524 168.894ZM270.623 112.751C271.835 112.89 274.718 113.004 277.029 113.006L281.231 113.008V169.12V225.232L275.376 225.208C272.156 225.195 268.87 225.275 268.074 225.385L266.628 225.584V168.861V112.137L267.523 112.318C268.016 112.417 269.41 112.612 270.623 112.751ZM73.2127 113.428C72.3919 113.953 71.4027 114.551 71.0147 114.756C70.6268 114.962 70.4452 115.134 70.6111 115.14C70.8976 115.15 74.1503 113.221 74.7041 112.712C75.2359 112.224 74.665 112.498 73.2127 113.428ZM254.096 113.82C254.175 113.944 254.918 114.402 255.749 114.84C256.58 115.277 257.195 115.534 257.116 115.41C257.038 115.287 256.294 114.828 255.464 114.39C254.633 113.953 254.018 113.696 254.096 113.82ZM69.499 115.561C69.2048 115.778 69.0967 115.955 69.2585 115.955C69.4205 115.955 69.7073 115.774 69.8961 115.553C70.3251 115.05 70.1901 115.053 69.499 115.561ZM67.554 116.366C66.8649 116.689 66.842 116.726 67.4163 116.589C68.1971 116.404 69.0744 115.969 68.6562 115.975C68.5046 115.977 68.0087 116.153 67.554 116.366ZM65.9008 117.026C65.8071 117.174 65.8545 117.294 66.0061 117.294C66.1576 117.294 66.3582 117.174 66.4519 117.026C66.5456 116.879 66.4982 116.759 66.3466 116.759C66.1951 116.759 65.9945 116.879 65.9008 117.026ZM127.487 117.897C127.493 118.389 127.975 119.048 128.182 118.847C128.423 118.613 128.061 117.562 127.74 117.562C127.598 117.562 127.485 117.713 127.487 117.897ZM198.479 117.741C198.207 118.005 198.256 118.902 198.541 118.902C198.787 118.902 199.122 118.272 199.122 117.808C199.122 117.522 198.745 117.482 198.479 117.741ZM128.038 119.907C128.044 120.529 128.474 121.168 128.675 120.852C128.888 120.518 128.584 119.438 128.277 119.438C128.143 119.438 128.036 119.649 128.038 119.907ZM197.875 119.994C197.669 120.626 197.844 120.915 198.277 120.654C198.638 120.437 198.668 119.438 198.314 119.438C198.172 119.438 197.975 119.688 197.875 119.994ZM128.585 122.251C128.585 122.619 128.709 122.921 128.86 122.921C129.012 122.921 129.136 122.619 129.136 122.251C129.136 121.883 129.012 121.581 128.86 121.581C128.709 121.581 128.585 121.883 128.585 122.251ZM197.468 122.267C197.468 122.655 197.588 122.881 197.744 122.787C197.896 122.696 198.02 122.387 198.02 122.101C198.02 121.815 197.896 121.581 197.744 121.581C197.592 121.581 197.468 121.89 197.468 122.267ZM197.193 123.649C197.193 123.814 197.118 124.139 197.026 124.372C196.934 124.606 196.999 124.796 197.172 124.796C197.635 124.796 197.866 124.004 197.505 123.653C197.277 123.431 197.193 123.431 197.193 123.649ZM128.86 124.238C128.86 124.567 129.038 124.796 129.294 124.796C129.551 124.796 129.691 124.614 129.638 124.35C129.504 123.677 128.86 123.585 128.86 124.238ZM129.244 126.024C129.336 126.257 129.412 126.558 129.412 126.694C129.412 126.829 129.535 126.939 129.687 126.939C129.839 126.939 129.963 126.638 129.963 126.27C129.963 125.833 129.808 125.6 129.52 125.6C129.229 125.6 129.135 125.746 129.244 126.024ZM196.642 126.27C196.642 126.638 196.766 126.939 196.917 126.939C197.069 126.939 197.193 126.829 197.193 126.694C197.193 126.558 197.268 126.257 197.36 126.024C197.47 125.746 197.375 125.6 197.085 125.6C196.796 125.6 196.642 125.833 196.642 126.27ZM129.687 128.114C129.687 128.482 129.811 128.858 129.963 128.949C130.118 129.042 130.238 128.823 130.238 128.445C130.238 128.076 130.114 127.7 129.963 127.609C129.807 127.516 129.687 127.735 129.687 128.114ZM196.366 128.145C196.366 128.514 196.49 128.815 196.642 128.815C196.793 128.815 196.917 128.514 196.917 128.145C196.917 127.777 196.793 127.475 196.642 127.475C196.49 127.475 196.366 127.777 196.366 128.145ZM129.963 130.288C129.963 130.657 130.087 130.958 130.238 130.958C130.39 130.958 130.514 130.657 130.514 130.288C130.514 129.92 130.39 129.619 130.238 129.619C130.087 129.619 129.963 129.92 129.963 130.288ZM196.091 130.288C196.091 130.657 196.215 130.958 196.366 130.958C196.518 130.958 196.642 130.657 196.642 130.288C196.642 129.92 196.518 129.619 196.366 129.619C196.215 129.619 196.091 129.92 196.091 130.288ZM130.169 131.651C129.953 131.861 130.263 132.834 130.546 132.834C130.859 132.834 130.864 131.839 130.552 131.651C130.422 131.573 130.249 131.573 130.169 131.651ZM195.999 131.673C195.713 131.951 195.783 132.834 196.091 132.834C196.242 132.834 196.366 132.532 196.366 132.164C196.366 131.463 196.303 131.377 195.999 131.673ZM130.238 134.158C130.238 134.743 130.668 135.116 130.909 134.738C131.11 134.421 130.808 133.637 130.484 133.637C130.349 133.637 130.238 133.871 130.238 134.158ZM195.706 134.063C195.477 134.645 195.815 135.14 196.121 134.671C196.431 134.194 196.431 133.637 196.12 133.637C195.985 133.637 195.798 133.829 195.706 134.063ZM130.514 136.183C130.514 136.551 130.638 136.853 130.789 136.853C130.941 136.853 131.065 136.551 131.065 136.183C131.065 135.814 130.941 135.513 130.789 135.513C130.638 135.513 130.514 135.814 130.514 136.183ZM195.54 136.183C195.54 136.551 195.664 136.853 195.815 136.853C195.967 136.853 196.091 136.551 196.091 136.183C196.091 135.814 195.967 135.513 195.815 135.513C195.664 135.513 195.54 135.814 195.54 136.183ZM130.618 138.045C130.534 138.259 130.545 138.561 130.643 138.715C130.964 139.22 131.34 139.01 131.34 138.326C131.34 137.6 130.867 137.416 130.618 138.045ZM195.264 138.326C195.264 138.694 195.388 138.996 195.54 138.996C195.691 138.996 195.815 138.694 195.815 138.326C195.815 137.958 195.691 137.656 195.54 137.656C195.388 137.656 195.264 137.958 195.264 138.326ZM195.448 139.71C195.162 139.988 195.232 140.871 195.54 140.871C195.691 140.871 195.815 140.57 195.815 140.201C195.815 139.5 195.752 139.415 195.448 139.71ZM130.789 140.335C130.789 140.63 130.913 140.871 131.065 140.871C131.216 140.871 131.34 140.63 131.34 140.335C131.34 140.041 131.216 139.8 131.065 139.8C130.913 139.8 130.789 140.041 130.789 140.335ZM130.789 142.345C130.789 142.713 130.913 143.015 131.065 143.015C131.216 143.015 131.34 142.713 131.34 142.345C131.34 141.976 131.216 141.675 131.065 141.675C130.913 141.675 130.789 141.976 130.789 142.345ZM195.264 142.345C195.264 142.713 195.388 143.015 195.54 143.015C195.691 143.015 195.815 142.713 195.815 142.345C195.815 141.976 195.691 141.675 195.54 141.675C195.388 141.675 195.264 141.976 195.264 142.345ZM130.973 143.729C130.687 144.007 130.757 144.89 131.065 144.89C131.216 144.89 131.34 144.589 131.34 144.22C131.34 143.519 131.277 143.434 130.973 143.729ZM195.264 144.22C195.264 144.589 195.388 144.89 195.54 144.89C195.691 144.89 195.815 144.589 195.815 144.22C195.815 143.852 195.691 143.55 195.54 143.55C195.388 143.55 195.264 143.852 195.264 144.22ZM130.899 146.069C130.799 146.325 130.852 146.666 131.019 146.828C131.239 147.043 131.372 146.996 131.506 146.658C131.606 146.403 131.553 146.061 131.386 145.899C131.166 145.685 131.033 145.731 130.899 146.069ZM195.099 146.069C194.998 146.325 195.052 146.666 195.218 146.828C195.439 147.043 195.572 146.996 195.705 146.658C195.806 146.403 195.752 146.061 195.585 145.899C195.365 145.685 195.232 145.731 195.099 146.069ZM130.789 148.373C130.789 148.668 130.913 148.909 131.065 148.909C131.216 148.909 131.34 148.668 131.34 148.373C131.34 148.078 131.216 147.837 131.065 147.837C130.913 147.837 130.789 148.078 130.789 148.373ZM195.264 148.373C195.264 148.668 195.388 148.909 195.54 148.909C195.691 148.909 195.815 148.668 195.815 148.373C195.815 148.078 195.691 147.837 195.54 147.837C195.388 147.837 195.264 148.078 195.264 148.373ZM130.789 150.382C130.789 150.751 130.913 151.052 131.065 151.052C131.216 151.052 131.34 150.751 131.34 150.382C131.34 150.014 131.216 149.713 131.065 149.713C130.913 149.713 130.789 150.014 130.789 150.382ZM195.264 150.382C195.264 150.751 195.388 151.052 195.54 151.052C195.691 151.052 195.815 150.751 195.815 150.382C195.815 150.014 195.691 149.713 195.54 149.713C195.388 149.713 195.264 150.014 195.264 150.382ZM120.973 151.622C121.241 152.921 121.175 159.423 120.86 162.841C119.413 178.539 112.467 193.667 101.138 205.795L99.9293 207.089V206.312C99.9293 205.292 100.469 191.954 100.566 190.568C100.607 189.977 100.713 189.375 100.801 189.229C100.89 189.082 101.047 186.853 101.152 184.274C101.257 181.695 101.391 178.983 101.45 178.246C101.509 177.509 101.692 173.892 101.857 170.208C102.022 166.525 102.271 162.667 102.411 161.635C102.551 160.604 102.747 157.831 102.847 155.473C102.947 153.115 103.083 151.096 103.149 150.985C103.215 150.875 107.213 150.784 112.035 150.784H120.801L120.973 151.622ZM224.034 154.2C224.134 156.079 224.333 159.184 224.478 161.099C224.623 163.015 224.878 166.993 225.045 169.941C225.213 172.888 225.398 175.841 225.458 176.505C225.585 177.927 225.964 184.534 226.555 195.661C226.79 200.081 227.05 204.481 227.132 205.439L227.282 207.179L226.669 206.645C226.183 206.22 223.363 203.053 220.822 200.077C220.338 199.51 216.731 194.183 216.087 193.084C214.741 190.786 211.96 185.335 211.455 184.006C211.148 183.196 210.8 182.412 210.684 182.265C210.567 182.117 210.259 181.274 210.001 180.389C209.743 179.505 209.363 178.42 209.158 177.978C208.7 176.992 207.484 172.27 206.978 169.513C205.984 164.092 205.472 155.76 205.913 152.191L206.087 150.784H214.97H223.853L224.034 154.2ZM130.789 152.258C130.789 152.626 130.913 152.928 131.065 152.928C131.216 152.928 131.34 152.626 131.34 152.258C131.34 151.889 131.216 151.588 131.065 151.588C130.913 151.588 130.789 151.889 130.789 152.258ZM195.264 152.242C195.264 152.602 195.388 152.971 195.54 153.062C195.7 153.158 195.815 152.886 195.815 152.408C195.815 151.957 195.691 151.588 195.54 151.588C195.388 151.588 195.264 151.882 195.264 152.242ZM130.697 153.91C130.596 154.008 130.514 154.32 130.514 154.602C130.514 155.297 131.179 155.05 131.291 154.313C131.376 153.75 131.073 153.544 130.697 153.91ZM195.31 154.283C195.361 154.62 195.567 154.948 195.77 155.013C196.019 155.093 196.108 154.935 196.045 154.519C195.994 154.183 195.788 153.854 195.585 153.79C195.336 153.709 195.247 153.868 195.31 154.283ZM195.691 155.942C195.575 156.199 195.575 156.622 195.691 156.879C195.89 157.326 195.906 157.326 196.016 156.879C196.079 156.622 196.079 156.199 196.016 155.942C195.906 155.495 195.89 155.495 195.691 155.942ZM130.514 156.411C130.514 156.705 130.638 156.946 130.789 156.946C130.941 156.946 131.065 156.705 131.065 156.411C131.065 156.116 130.941 155.875 130.789 155.875C130.638 155.875 130.514 156.116 130.514 156.411ZM130.238 158.42C130.238 159.168 130.64 159.318 130.897 158.666C131.162 157.996 131.096 157.75 130.651 157.75C130.394 157.75 130.238 158.003 130.238 158.42ZM195.54 158.27C195.54 158.856 195.97 159.229 196.21 158.851C196.412 158.534 196.109 157.75 195.786 157.75C195.651 157.75 195.54 157.984 195.54 158.27ZM130.238 160.445C130.238 160.923 130.353 161.196 130.514 161.099C130.665 161.008 130.789 160.639 130.789 160.28C130.789 159.92 130.665 159.626 130.514 159.626C130.362 159.626 130.238 159.995 130.238 160.445ZM195.815 160.295C195.815 160.664 195.939 160.965 196.091 160.965C196.242 160.965 196.366 160.664 196.366 160.295C196.366 159.927 196.242 159.626 196.091 159.626C195.939 159.626 195.815 159.927 195.815 160.295ZM129.963 162.439C129.963 162.807 130.087 163.109 130.238 163.109C130.39 163.109 130.514 162.807 130.514 162.439C130.514 162.07 130.39 161.769 130.238 161.769C130.087 161.769 129.963 162.07 129.963 162.439ZM196.091 162.439C196.091 162.807 196.215 163.109 196.366 163.109C196.518 163.109 196.642 162.807 196.642 162.439C196.642 162.07 196.518 161.769 196.366 161.769C196.215 161.769 196.091 162.07 196.091 162.439ZM129.863 163.83C129.599 164.087 129.651 164.984 129.93 164.984C130.249 164.984 130.525 163.951 130.251 163.786C130.135 163.716 129.96 163.736 129.863 163.83ZM196.247 163.884C196.045 164.201 196.348 164.984 196.671 164.984C196.997 164.984 196.989 163.987 196.661 163.79C196.52 163.705 196.334 163.747 196.247 163.884ZM129.595 165.966C129.324 166.23 129.372 167.127 129.658 167.127C129.904 167.127 130.238 166.498 130.238 166.034C130.238 165.747 129.861 165.708 129.595 165.966ZM196.416 166.37C196.546 167.227 197.193 167.319 197.193 166.48C197.193 166.03 197.042 165.788 196.76 165.788C196.473 165.788 196.358 165.983 196.416 166.37ZM129.324 167.837C129.049 168.105 129.094 169.003 129.382 169.003C129.742 169.003 130.02 168.148 129.747 167.882C129.618 167.757 129.428 167.737 129.324 167.837ZM196.753 168.035C196.574 168.491 196.815 169.003 197.209 169.003C197.557 169.003 197.542 168.007 197.191 167.796C197.038 167.704 196.841 167.812 196.753 168.035ZM128.86 170.454C128.86 170.835 128.984 171.146 129.136 171.146C129.288 171.146 129.412 170.965 129.412 170.744C129.412 170.523 129.421 170.255 129.432 170.148C129.443 170.041 129.319 169.911 129.157 169.858C128.994 169.805 128.86 170.073 128.86 170.454ZM197.193 170.461C197.193 170.838 197.317 171.146 197.468 171.146C197.62 171.146 197.744 170.912 197.744 170.626C197.744 170.34 197.62 170.032 197.468 169.941C197.312 169.846 197.193 170.072 197.193 170.461ZM128.769 171.861C128.483 172.139 128.553 173.022 128.86 173.022C129.012 173.022 129.136 172.72 129.136 172.352C129.136 171.65 129.072 171.565 128.769 171.861ZM197.468 172.336C197.468 172.713 197.592 173.022 197.744 173.022C197.896 173.022 198.02 172.788 198.02 172.502C198.02 172.215 197.896 171.907 197.744 171.816C197.588 171.722 197.468 171.947 197.468 172.336ZM128.234 174.346C128.079 174.922 128.258 175.227 128.623 175.008C128.935 174.82 128.93 173.825 128.617 173.825C128.483 173.825 128.311 174.06 128.234 174.346ZM197.744 174.517C197.744 174.898 197.877 175.166 198.04 175.114C198.203 175.061 198.327 174.93 198.316 174.823C198.304 174.716 198.295 174.448 198.295 174.227C198.295 174.006 198.171 173.825 198.02 173.825C197.868 173.825 197.744 174.137 197.744 174.517ZM127.889 176.257C127.79 176.563 127.788 176.891 127.886 176.986C128.093 177.187 128.574 176.527 128.581 176.036C128.588 175.493 128.086 175.653 127.889 176.257ZM198.02 176.221C198.02 176.746 198.485 177.213 198.752 176.953C198.968 176.743 198.573 175.701 198.277 175.701C198.135 175.701 198.02 175.935 198.02 176.221ZM127.483 178.53C127.483 178.919 127.602 179.144 127.758 179.05C127.91 178.959 128.034 178.65 128.034 178.364C128.034 178.078 127.91 177.844 127.758 177.844C127.607 177.844 127.483 178.153 127.483 178.53ZM198.571 178.514C198.571 178.882 198.695 179.184 198.846 179.184C198.998 179.184 199.122 178.882 199.122 178.514C199.122 178.146 198.998 177.844 198.846 177.844C198.695 177.844 198.571 178.146 198.571 178.514ZM127.988 179.524C127.368 179.763 127.059 180.318 126.023 183.046C123.389 189.985 119.486 201.941 119.311 203.606C119.213 204.541 119.015 205.381 118.871 205.473C118.709 205.576 118.725 205.85 118.913 206.192C119.08 206.496 119.217 207.058 119.217 207.442C119.217 207.826 119.473 208.628 119.785 209.224C120.525 210.633 122.119 211.352 126.829 212.401C136.392 214.529 147.007 215.196 168.445 215.017C181.407 214.909 182.477 214.863 187.549 214.191C193.473 213.407 201.457 211.847 203.67 211.042C204.452 210.758 205.355 210.253 205.676 209.921C206.352 209.221 207.195 207.394 206.99 207.071C206.913 206.95 207.095 206.635 207.394 206.372C208.097 205.753 208.083 205.526 207.342 205.553C206.798 205.572 206.68 205.278 206.007 202.225C205.184 198.486 204.69 196.858 201.861 188.561C200.781 185.393 199.849 182.328 199.789 181.751C199.729 181.173 199.608 180.48 199.52 180.21C199.346 179.677 198.846 179.534 198.846 180.018C198.846 180.209 198.62 180.173 198.222 179.919C197.128 179.223 196.009 179.155 192.495 179.573C185.217 180.439 175.236 181.104 167.435 181.243C159.005 181.394 151.445 181.032 135.335 179.708C131.85 179.422 128.936 179.199 128.86 179.214C128.785 179.229 128.392 179.368 127.988 179.524ZM138.091 180.909C144.415 181.327 148.282 181.593 155.863 182.134C160.292 182.449 168.815 182.448 173.221 182.131C188.662 181.022 188.76 181.014 193.541 180.476C196.909 180.097 197.527 180.331 198.273 182.269C198.573 183.049 199.212 184.875 199.692 186.325C200.173 187.776 200.991 190.168 201.51 191.642C203.174 196.363 204.089 199.585 204.895 203.564L205.682 207.449L205.117 208.436C204.406 209.677 202.339 210.601 198.919 211.208C197.591 211.443 195.822 211.811 194.989 212.025C192.753 212.599 183.376 213.739 178.319 214.052C172.153 214.433 147.896 214.125 142.362 213.595C129.184 212.334 121.689 210.638 120.925 208.744C120.373 207.375 120.41 206.46 121.008 206.682C121.574 206.894 121.543 206.125 120.946 205.143C120.496 204.402 120.497 204.24 120.964 202.035C121.235 200.755 121.685 199.219 121.963 198.622C122.242 198.025 122.606 197.039 122.773 196.43C123.243 194.721 124.991 189.593 125.409 188.695C125.615 188.253 125.991 187.107 126.245 186.15C126.498 185.192 126.801 184.288 126.918 184.14C127.034 183.993 127.354 183.27 127.628 182.533C128.399 180.458 128.921 180.019 130.319 180.267C130.957 180.38 134.454 180.669 138.091 180.909ZM115.151 203.899C115.213 204.084 115.559 204.276 115.919 204.327C116.49 204.408 116.526 204.365 116.208 203.992C115.776 203.486 114.988 203.417 115.151 203.899ZM210.545 203.85C210.445 204.007 210.432 204.203 210.517 204.285C210.743 204.506 211.521 204.162 211.521 203.841C211.521 203.477 210.778 203.484 210.545 203.85ZM116.913 204.554C116.672 204.788 117.277 205.44 117.735 205.44C117.944 205.44 118.115 205.324 118.115 205.181C118.115 204.846 117.137 204.336 116.913 204.554ZM208.966 204.671C208.396 204.982 208.338 205.44 208.87 205.44C209.342 205.44 209.976 204.733 209.668 204.548C209.544 204.473 209.228 204.529 208.966 204.671ZM100.65 217.429C100.571 217.687 100.247 220.189 99.9299 222.989C97.3498 245.763 94.2924 263.581 90.8695 275.792C90.0652 278.662 88.2172 283.09 87.9375 282.818C87.8623 282.745 88.0003 281.671 88.2442 280.433C89.1518 275.823 88.3894 270.162 86.4425 267.054C86.0245 266.387 85.5935 265.242 85.4844 264.509C84.9565 260.96 82.5952 255.409 80.4515 252.679C79.5615 251.545 79.5398 251.454 79.5398 248.87C79.5398 243.961 78.2274 239.653 75.5161 235.66C72.4315 231.118 68.493 228.092 63.5588 226.474L61.7678 225.887L61.6915 221.77C61.6493 219.505 61.6766 217.497 61.7516 217.307C61.8615 217.028 65.6958 216.96 81.3407 216.96C99.7375 216.96 100.785 216.986 100.65 217.429ZM265.25 221.466V225.972L263.666 226.451C260.658 227.361 257.805 229.018 255.424 231.236C250.251 236.057 247.782 241.376 247.438 248.441C247.283 251.615 247.268 251.675 246.244 253.129C244.093 256.184 242.066 261.054 241.672 264.114C241.568 264.925 241.282 265.811 241.036 266.085C240.79 266.358 240.629 266.599 240.676 266.621C240.724 266.642 240.384 267.448 239.92 268.411C238.698 270.951 238.435 272.743 238.626 277.242C238.717 279.379 238.856 281.549 238.937 282.065C239.054 282.821 238.904 282.64 238.162 281.127C235.173 275.04 231.664 257.888 228.214 232.5C227.983 230.805 227.541 226.947 227.231 223.926C226.921 220.905 226.597 218.103 226.511 217.697L226.356 216.96H245.803H265.25V221.466ZM51.2975 228.634C50.9944 228.704 49.8785 228.954 48.8177 229.188C42.3765 230.612 36.8912 235.26 34.3706 241.43C33.218 244.251 32.8805 246.49 33.0354 250.29C33.2514 255.595 34.8889 259.403 38.6072 263.246C42.5259 267.296 47.2744 269.422 52.965 269.675C60.2761 270 66.6194 267.232 70.8376 261.878C74.2294 257.571 75.854 251.832 75.1321 246.706C74.4008 241.512 72.7035 238.169 68.9367 234.501C64.9001 230.571 60.7224 228.821 54.8794 228.614C53.2125 228.554 51.6006 228.564 51.2975 228.634ZM270.072 228.634C269.769 228.704 268.653 228.954 267.592 229.188C260.664 230.72 254.997 235.898 252.681 242.815C251.721 245.682 251.481 250.206 252.124 253.294C253.698 260.847 259.137 266.62 266.903 268.979C268.665 269.514 269.539 269.605 272.827 269.599C277.29 269.59 279.035 269.225 282.494 267.575C286.559 265.637 289.755 262.513 291.889 258.39C293.4 255.475 293.977 252.971 293.999 249.245C294.022 245.35 293.552 243.338 291.777 239.738C290.688 237.529 290.178 236.862 287.875 234.636C283.654 230.555 279.565 228.823 273.654 228.614C271.987 228.554 270.375 228.564 270.072 228.634ZM57.8811 229.957C64.0856 231.203 69.278 235.044 71.9722 240.379C73.7161 243.833 74.16 245.676 74.1401 249.379C74.1255 252.123 74.0266 252.738 73.2336 255.005C70.831 261.874 65.8022 266.398 58.6047 268.165C53.9983 269.295 48.2735 268.474 43.9958 266.068C41.2714 264.535 37.7599 260.974 36.3338 258.297C30.5208 247.386 36.0221 234.3 48.0118 230.518C51.26 229.493 54.6199 229.302 57.8811 229.957ZM276.765 229.978C281.001 230.827 284.548 232.751 287.468 235.788C289.666 238.072 290.927 240.137 292.013 243.231C292.814 245.515 292.902 246.075 292.913 248.977C292.927 252.628 292.508 254.512 291.001 257.579C286.665 266.402 275.962 270.817 266.553 267.663C263.517 266.646 261.505 265.486 259.249 263.453C256.189 260.696 254.162 257.261 253.262 253.304C252.566 250.244 252.787 245.957 253.789 243.082C257.084 233.63 266.939 228.01 276.765 229.978ZM49.8578 234.504C45.9323 235.574 41.9158 238.73 40.2037 242.089C37.2378 247.907 38.2791 255.108 42.74 259.634C48.759 265.741 58.9775 265.877 65.1117 259.93C67.0346 258.066 68.8945 254.74 69.3466 252.356C70.8006 244.693 66.8346 237.62 59.5635 234.911C57.4325 234.116 52.0988 233.893 49.8578 234.504ZM268.632 234.504C263.646 235.863 259.708 239.553 258.045 244.422C257.157 247.022 257.142 251.113 258.011 253.811C259.398 258.12 263.065 261.88 267.286 263.322C277.818 266.922 288.395 259.926 288.395 249.359C288.395 246.435 288.001 244.726 286.76 242.27C285.022 238.831 281.948 236.154 278.247 234.855C276.173 234.127 270.741 233.929 268.632 234.504ZM56.8082 235.316C62.5941 236.502 66.7767 240.389 68.2652 245.961C68.9295 248.448 68.9254 249.865 68.247 252.444C66.8156 257.886 62.5107 261.835 56.7258 263.013C49.4624 264.492 41.2827 259.384 39.6107 252.326C39.2084 250.627 39.25 247.35 39.6948 245.726C40.9911 240.993 45.2889 236.854 50.1954 235.614C53.4175 234.799 54.1327 234.767 56.8082 235.316ZM276.552 235.466C279.247 236.191 281.292 237.344 283.16 239.189C289.98 245.925 288.234 257.14 279.687 261.497C273.775 264.511 267.404 263.606 262.805 259.099C256.801 253.215 256.963 244.34 263.178 238.725C266.824 235.43 271.862 234.203 276.552 235.466ZM80.9097 255.528C82.7602 258.609 84.4994 263.621 84.4994 265.873C84.4994 266.231 84.064 267.113 83.532 267.833C82.4483 269.3 80.7177 272.801 79.8743 275.233C78.9675 277.847 78.1621 283.156 78.1621 286.519C78.1621 289.242 78.1108 289.567 77.6799 289.568C77.4146 289.569 74.9659 289.748 72.2381 289.967C69.5103 290.185 67.1881 290.365 67.0774 290.367C66.9669 290.369 66.6147 290.869 66.2948 291.478L65.7135 292.587L63.5734 292.413C55.3768 291.748 49.5652 286.518 47.4607 277.912C47.1006 276.438 46.7421 274.711 46.6641 274.075L46.5228 272.916L47.5323 273.075C51.8714 273.758 57.5039 273.705 60.9798 272.947C64.8521 272.103 69.8101 269.289 72.7346 266.274C75.5704 263.351 78.1662 258.583 79.0143 254.738C79.1772 253.999 79.4224 253.461 79.5588 253.543C79.6954 253.625 80.3033 254.518 80.9097 255.528ZM248.152 254.938C250.085 263.475 256.847 270.47 265.389 272.769C268.907 273.716 274.427 273.834 279.371 273.068C280.625 272.874 280.627 272.892 279.881 276.63C278.522 283.431 275.16 288.259 270.132 290.625C267.767 291.738 264.579 292.514 262.366 292.514C261.315 292.514 261.146 292.425 260.845 291.719C260.659 291.281 260.346 290.794 260.15 290.636C259.953 290.477 257.456 290.168 254.6 289.948C251.743 289.729 249.292 289.516 249.151 289.475C249.01 289.434 248.861 287.853 248.819 285.961C248.726 281.744 248.356 279.271 247.301 275.819C246.409 272.898 245.093 270.157 243.452 267.801C242.862 266.955 242.381 266.095 242.381 265.888C242.381 264.965 243.867 260.055 244.662 258.354C245.7 256.13 247.323 253.397 247.604 253.397C247.714 253.397 247.96 254.09 248.152 254.938ZM244.256 271.426C246.517 275.836 247.567 280.097 247.817 285.883L247.964 289.299H246.155C243.763 289.299 243.197 289.052 242.023 287.497C240.779 285.85 239.919 282.096 239.699 277.362C239.523 273.564 239.892 271.031 240.922 268.954L241.644 267.498L242.386 268.362C242.794 268.837 243.635 270.216 244.256 271.426ZM86.3036 269.342C87.7176 272.451 87.8623 277.341 86.7042 282.867C86.0518 285.979 85.6925 286.845 84.4801 288.225C83.6849 289.131 83.5854 289.165 81.4211 289.26L79.1841 289.359L79.3439 285.109C79.4781 281.537 79.637 280.378 80.3391 277.844C81.587 273.339 84.2729 267.865 85.2356 267.865C85.4536 267.865 85.9341 268.53 86.3036 269.342ZM137.188 290.066C138.291 290.488 140.123 291.098 141.259 291.422C144.457 292.333 144.566 292.395 144.566 293.312C144.566 293.853 144.703 294.121 144.979 294.121C145.258 294.121 145.392 293.85 145.392 293.288C145.392 292.469 145.411 292.457 146.426 292.647C150.713 293.448 152.209 293.606 156.965 293.758C165.284 294.024 176.398 293.163 181.863 291.829C182.569 291.657 182.59 291.686 182.59 292.887C182.59 293.785 182.698 294.121 182.989 294.121C183.273 294.121 183.411 293.732 183.471 292.757L183.554 291.392L186.309 290.423L189.065 289.454L199.833 289.371L210.6 289.286L211.336 289.95L212.072 290.613V299.586V308.559L211.407 309.311L210.742 310.062H197.148H183.554L183.469 309.058C183.414 308.422 183.243 308.053 183.003 308.053C182.763 308.053 182.592 308.422 182.537 309.058L182.452 310.062H163.991H145.53L145.445 309.058C145.391 308.422 145.219 308.053 144.979 308.053C144.739 308.053 144.568 308.422 144.514 309.058L144.428 310.062L130.7 310.132C123.149 310.17 116.587 310.104 116.117 309.986C115.647 309.868 115.005 309.436 114.691 309.027C114.15 308.323 114.114 307.88 114.029 300.867C113.923 292.217 114.042 290.824 114.958 289.932L115.61 289.299H125.397H135.183L137.188 290.066ZM144.566 296.264C144.566 297.038 144.681 297.336 144.979 297.336C145.278 297.336 145.392 297.038 145.392 296.264C145.392 295.49 145.278 295.193 144.979 295.193C144.681 295.193 144.566 295.49 144.566 296.264ZM182.59 296.264C182.59 297.038 182.705 297.336 183.003 297.336C183.301 297.336 183.416 297.038 183.416 296.264C183.416 295.49 183.301 295.193 183.003 295.193C182.705 295.193 182.59 295.49 182.59 296.264ZM144.566 299.479C144.566 300.254 144.681 300.551 144.979 300.551C145.278 300.551 145.392 300.254 145.392 299.479C145.392 298.705 145.278 298.408 144.979 298.408C144.681 298.408 144.566 298.705 144.566 299.479ZM182.59 299.479C182.59 300.254 182.705 300.551 183.003 300.551C183.301 300.551 183.416 300.254 183.416 299.479C183.416 298.705 183.301 298.408 183.003 298.408C182.705 298.408 182.59 298.705 182.59 299.479ZM144.566 302.695C144.566 303.469 144.681 303.766 144.979 303.766C145.278 303.766 145.392 303.469 145.392 302.695C145.392 301.921 145.278 301.623 144.979 301.623C144.681 301.623 144.566 301.921 144.566 302.695ZM182.59 302.695C182.59 303.469 182.705 303.766 183.003 303.766C183.301 303.766 183.416 303.469 183.416 302.695C183.416 301.921 183.301 301.623 183.003 301.623C182.705 301.623 182.59 301.921 182.59 302.695ZM144.566 305.91C144.566 306.684 144.681 306.981 144.979 306.981C145.278 306.981 145.392 306.684 145.392 305.91C145.392 305.136 145.278 304.838 144.979 304.838C144.681 304.838 144.566 305.136 144.566 305.91ZM182.59 305.91C182.59 306.684 182.705 306.981 183.003 306.981C183.301 306.981 183.416 306.684 183.416 305.91C183.416 305.136 183.301 304.838 183.003 304.838C182.705 304.838 182.59 305.136 182.59 305.91Z" fill="#2F3845"/>
<path d="M209.037 37.0815C209.037 40.0527 206.203 42.215 203.311 41.4714C174.244 33.9953 155.735 33.7077 127.798 41.3371C124.876 42.1349 121.97 39.9641 121.97 36.9555L121.97 26.1392C121.97 23.9392 123.569 22.0589 125.739 21.711C155.769 16.8987 174.441 16.1072 205.369 21.6413C207.493 22.0213 209.037 23.88 209.037 26.0417L209.037 37.0815Z" stroke="#2F3845"/>
</svg>
